# xmcd
#
# Track frame offsets:
#	150
#	16987
#	33326
#	47524
#	65448
#	78659
#	93928
#	106250
#	122088
#	136488
#
# Disc length: 2075 seconds
#
# Revision: 2
# Processed by: cddbd v1.5.2PL0 Copyright (c) Steve Scherf et al.
# Submitted via: EZCDAudioConverter 6.0.2.1
#
DISCID=7b08190a
DTITLE=Don Williams - Reflections
DYEAR=2014
DGENRE=Country
TTITLE0=I'll Be Here In The Morning
TTITLE1=Talk Is Cheap
TTITLE2=I Won't Give Up On You
TTITLE3=Sing Me Back Home
TTITLE4=Working Man's Son
TTITLE5=Healing Hands
TTITLE6=If I Were Free
TTITLE7=Stronger Back
TTITLE8=Back To The Simple Things
TTITLE9=The Answer
EXTD=
EXTT0=
EXTT1=
EXTT2=
EXTT3=
EXTT4=
EXTT5=
EXTT6=
EXTT7=
EXTT8=
EXTT9=
PLAYORDER=
